<?xml version="1.0" encoding="utf-8"?>
<!-- Generator: Adobe Illustrator 16.0.0, SVG Export Plug-In . SVG Version: 6.00 Build 0)  -->
<!DOCTYPE svg PUBLIC "-//W3C//DTD SVG 1.1//EN" "http://www.w3.org/Graphics/SVG/1.1/DTD/svg11.dtd">
<svg version="1.1" id="Layer_1" xmlns="http://www.w3.org/2000/svg" xmlns:xlink="http://www.w3.org/1999/xlink" x="0px" y="0px"
	 width="1816px" height="540px" viewBox="0 0 1816 540" enable-background="new 0 0 1816 540" xml:space="preserve">
<title>HTML5 Logo</title>
<text transform="matrix(1 0 0 1 20.2095 344.293)" font-family="'GothamUltra'" font-size="227">FORWARD</text>
<polygon fill="#231F20" points="1399.668,464.844 1360.209,22.272 1793.789,22.272 1754.289,464.775 1576.734,514 "/>
<polygon fill="#4F4C4D" points="1577,476.375 1720.473,436.598 1754.229,58.458 1577,58.458 "/>
<polyline fill="#EBEBEB" points="1632.215,252.5 1632.215,198.124 1516.168,198.124 1516.168,84.838 1458.832,84.838 
	1458.832,152.647 1458.832,252.5 "/>
<path fill="#EBEBEB" d="M1572.649,242.658"/>
<path fill="#FFFFFF" d="M1727.375,128.574"/>
<path fill="#FFFFFF" d="M1642.203,242.658"/>
<rect x="1638.188" y="84.838" fill="#FFFFFF" width="50.982" height="113.995"/>
<polygon fill="#FFFFFF" points="1576.832,198.124 1576.832,252.402 1629.838,252.402 1622.613,341.293 1608.822,344.299 1609,400.5 
	1673.35,383.264 1675.092,355.602 1687.848,212.699 1689.172,198.124 1674.545,198.124 "/>
</svg>
