<?xml version="1.0" encoding="utf-8"?>
<!-- Generator: Adobe Illustrator 16.0.0, SVG Export Plug-In . SVG Version: 6.00 Build 0)  -->
<!DOCTYPE svg PUBLIC "-//W3C//DTD SVG 1.1//EN" "http://www.w3.org/Graphics/SVG/1.1/DTD/svg11.dtd">
<svg version="1.1" id="Layer_1" xmlns="http://www.w3.org/2000/svg" xmlns:xlink="http://www.w3.org/1999/xlink" x="0px" y="0px"
	 width="1816px" height="540px" viewBox="0 0 1816 540" enable-background="new 0 0 1816 540" xml:space="preserve">
<title>HTML5 Logo</title>
<text transform="matrix(1 0 0 1 21.2095 354.293)" font-family="'GothamUltra'" font-size="227">FORWARD</text>
<polygon fill="#E44D26" points="1400.668,474.844 1361.209,32.272 1794.789,32.272 1755.289,474.775 1577.734,524 "/>
<polygon fill="#F16529" points="1578,486.375 1721.473,446.598 1755.229,68.458 1578,68.458 "/>
<polyline fill="#EBEBEB" points="1633.215,262.5 1633.215,208.124 1517.168,208.124 1517.168,94.838 1459.832,94.838 
	1459.832,162.647 1459.832,262.5 "/>
<path fill="#EBEBEB" d="M1573.649,252.658"/>
<path fill="#FFFFFF" d="M1728.375,138.574"/>
<path fill="#FFFFFF" d="M1643.203,252.658"/>
<rect x="1639.188" y="94.838" fill="#FFFFFF" width="50.982" height="113.995"/>
<polygon fill="#FFFFFF" points="1577.832,208.124 1577.832,262.402 1630.838,262.402 1623.613,351.293 1609.822,354.299 1610,410.5 
	1674.35,393.264 1676.092,365.602 1688.848,222.699 1690.172,208.124 1675.545,208.124 "/>
</svg>
