<?xml version="1.0" encoding="utf-8"?>
<!-- Generator: Adobe Illustrator 16.0.0, SVG Export Plug-In . SVG Version: 6.00 Build 0)  -->
<!DOCTYPE svg PUBLIC "-//W3C//DTD SVG 1.1//EN" "http://www.w3.org/Graphics/SVG/1.1/DTD/svg11.dtd">
<svg version="1.1" id="Layer_1" xmlns="http://www.w3.org/2000/svg" xmlns:xlink="http://www.w3.org/1999/xlink" x="0px" y="0px"
	 width="496px" height="620px" viewBox="0 0 496 620" enable-background="new 0 0 496 620" xml:space="preserve">
<title>HTML5 Logo</title>
<text transform="matrix(1 0 0 1 28.7256 82.501)" font-family="'GothamUltra'" font-size="80">FORWARD</text>
<polygon fill="#231F20" points="73.152,554.845 33.693,112.271 467.274,112.271 427.774,554.775 250.219,604 "/>
<polygon fill="#4F4C4D" points="250.484,566.375 393.958,526.599 427.713,148.459 250.484,148.459 "/>
<polyline fill="#EBEBEB" points="305.699,342.5 305.699,288.125 189.652,288.125 189.652,174.838 132.316,174.838 132.316,242.646 
	132.316,342.5 "/>
<path fill="#EBEBEB" d="M246.134,332.658"/>
<path fill="#FFFFFF" d="M400.86,218.575"/>
<path fill="#FFFFFF" d="M315.688,332.658"/>
<rect x="311.673" y="174.838" fill="#FFFFFF" width="50.983" height="113.995"/>
<polygon fill="#FFFFFF" points="250.317,288.125 250.317,342.403 303.323,342.403 296.098,431.293 282.308,434.299 282.484,490.5 
	346.835,473.264 348.577,445.602 361.332,302.7 362.656,288.125 348.029,288.125 "/>
</svg>
