<?xml version="1.0" encoding="utf-8"?>
<!-- Generator: Adobe Illustrator 16.0.0, SVG Export Plug-In . SVG Version: 6.00 Build 0)  -->
<!DOCTYPE svg PUBLIC "-//W3C//DTD SVG 1.1//EN" "http://www.w3.org/Graphics/SVG/1.1/DTD/svg11.dtd">
<svg version="1.1" id="Layer_1" xmlns="http://www.w3.org/2000/svg" xmlns:xlink="http://www.w3.org/1999/xlink" x="0px" y="0px"
	 width="496px" height="620px" viewBox="0 0 496 620" enable-background="new 0 0 496 620" xml:space="preserve">
<title>HTML5 Logo</title>
<text transform="matrix(1 0 0 1 28.7256 84.4912)" font-family="'GothamUltra'" font-size="80">FORWARD</text>
<g>
	<polygon fill="#E44D26" points="73.151,556.834 33.694,114.262 467.274,114.262 427.774,556.766 250.219,605.99 	"/>
	<polygon fill="#F16529" points="250.484,568.365 393.958,528.588 427.713,150.45 250.484,150.45 	"/>
	<polyline fill="#EBEBEB" points="305.699,344.49 305.699,290.116 189.653,290.116 189.653,176.829 132.317,176.829 
		132.317,244.637 132.317,344.49 	"/>
	<path fill="#EBEBEB" d="M246.134,334.648"/>
	<path fill="#FFFFFF" d="M400.86,220.565"/>
	<path fill="#FFFFFF" d="M315.688,334.648"/>
	<rect x="311.673" y="176.829" fill="#FFFFFF" width="50.983" height="113.994"/>
	<polygon fill="#FFFFFF" points="250.317,290.116 250.317,344.393 303.323,344.393 296.098,433.283 282.308,436.289 282.484,492.49 
		346.835,475.254 348.577,447.592 361.332,304.69 362.656,290.116 348.029,290.116 	"/>
</g>
</svg>
