<?xml version="1.0" encoding="utf-8"?>
<!-- Generator: Adobe Illustrator 16.0.0, SVG Export Plug-In . SVG Version: 6.00 Build 0)  -->
<!DOCTYPE svg PUBLIC "-//W3C//DTD SVG 1.1//EN" "http://www.w3.org/Graphics/SVG/1.1/DTD/svg11.dtd">
<svg version="1.1"
	 id="svg3769" sodipodi:docname="New document 3" inkscape:version="0.48.3.1 r9886" xmlns:dc="http://purl.org/dc/elements/1.1/" xmlns:cc="http://creativecommons.org/ns#" xmlns:rdf="http://www.w3.org/1999/02/22-rdf-syntax-ns#" xmlns:svg="http://www.w3.org/2000/svg" xmlns:sodipodi="http://sodipodi.sourceforge.net/DTD/sodipodi-0.dtd" xmlns:inkscape="http://www.inkscape.org/namespaces/inkscape"
	 xmlns="http://www.w3.org/2000/svg" xmlns:xlink="http://www.w3.org/1999/xlink" x="0px" y="0px" width="222.639px"
	 height="218.787px" viewBox="0 0 222.639 218.787" enable-background="new 0 0 222.639 218.787" xml:space="preserve">
<sodipodi:namedview  inkscape:window-maximized="1" inkscape:window-y="0" inkscape:window-x="0" inkscape:window-height="965" inkscape:window-width="1280" fit-margin-bottom="4" fit-margin-right="4" inkscape:document-units="px" inkscape:pageshadow="2" inkscape:current-layer="layer1" inkscape:pageopacity="0.0" fit-margin-left="4" fit-margin-top="4" showgrid="false" inkscape:cy="-39.177766" inkscape:cx="60.605349" inkscape:zoom="1.4" borderopacity="1.0" bordercolor="#666666" pagecolor="#ffffff" id="base">
	</sodipodi:namedview>
<g id="layer1" transform="translate(-314.39464,-274.3971)" inkscape:groupmode="layer" inkscape:label="Layer 1" display="none">
	<path display="inline" fill="#1EBBEE" d="M532.24,401.152c0.523-4.068,0.794-8.214,0.794-12.423
		c0-16.968-4.387-32.909-12.08-46.761c32.791-74.213-35.136-63.343-38.918-62.603c-14.391,2.816-27.704,7.337-39.985,13.068
		c-1.812-0.103-3.633-0.158-5.469-0.158c-45.833,0-84.198,31.968-94.018,74.823c24.157-27.101,41.063-38.036,51.188-42.412
		c-1.616,1.444-3.198,2.904-4.754,4.375c-0.519,0.489-1.018,0.985-1.528,1.477c-1.026,0.987-2.05,1.975-3.05,2.972
		c-0.596,0.593-1.175,1.191-1.761,1.788c-0.887,0.903-1.771,1.805-2.638,2.713c-0.615,0.645-1.215,1.292-1.819,1.938
		c-0.809,0.866-1.612,1.733-2.401,2.603c-0.613,0.676-1.216,1.352-1.818,2.03c-0.748,0.842-1.489,1.684-2.22,2.528
		c-0.606,0.7-1.207,1.4-1.801,2.101c-0.693,0.818-1.377,1.636-2.055,2.454c-0.599,0.724-1.195,1.447-1.781,2.17
		c-0.635,0.782-1.255,1.563-1.873,2.343c-0.601,0.756-1.2,1.511-1.786,2.266c-0.559,0.719-1.101,1.435-1.646,2.152
		c-0.616,0.81-1.236,1.62-1.837,2.426c-0.429,0.577-0.841,1.148-1.262,1.723c-3.812,5.2-7.293,10.3-10.438,15.199
		c-0.008,0.012-0.016,0.024-0.022,0.036c-0.828,1.29-1.627,2.561-2.41,3.821c-0.042,0.068-0.086,0.137-0.128,0.206
		c-0.784,1.265-1.541,2.508-2.279,3.738c-0.025,0.043-0.053,0.087-0.079,0.13c-1.983,3.312-3.823,6.504-5.48,9.506
		c-8.688,15.744-12.916,26.742-13.1,27.396c-27.432,98.072,58.185,56.657,70.132,50.476c12.863,6.354,27.346,9.932,42.666,9.932
		c41.939,0,77.623-26.771,90.904-64.156h-50.68c-7.499,12.669-21.937,21.25-38.522,21.25c-24.296,0-43.992-18.404-44-41.111h-39.32
		h39.32c0-0.005,0-0.009,0-0.014H532.24z M387.467,471.755c-9.664,5.319-35.32,17.295-48.967,3.299
		c-6.766-6.938-7.961-23.836,6.967-54.629C353.001,442.088,368.035,460.237,387.467,471.755z M515.016,293.813
		c8.306,5.606,14.968,14.41,3.527,44.059c-10.974-17.647-27.482-31.49-47.104-39.099
		C480.365,294.462,502.47,285.344,515.016,293.813z M437.659,335.026c23.604,0,42.817,17.675,43.589,39.75h-87.177
		C394.842,352.701,414.054,335.026,437.659,335.026z"/>
</g>
<g id="layer1_1_" transform="translate(-314.39464,-274.3971)" inkscape:groupmode="layer" inkscape:label="Layer 1">
	<path fill="#3D489E" d="M481.247,374.776L481.247,374.776C481.246,374.735,481.245,374.694,481.247,374.776z"/>
	<path fill="#3D489E" d="M481.247,374.776L481.247,374.776C481.251,374.857,481.249,374.817,481.247,374.776z"/>
	<path fill="#3D489E" d="M394.284,401.166h-39.32 M354.964,401.166 M394.284,401.166c0-0.005,0-0.009,0-0.014h87.014h50.942
		c0.523-4.068,0.794-8.215,0.794-12.424c0-4.908-0.275-7.33-1.006-13.973c-16.91,0-33.871,0.021-50.78,0.021
		c0.001,0.021,0.002,0.041,0.002,0.045c0-0.005-0.001-0.025-0.002-0.045l-87.177,0c0.771-22.075,19.983-39.75,43.588-39.75
		c23.431,0,35.761,16.464,38.097,21.006c16.909,0,34.66-0.05,51.57-0.05c-0.98-2.59-0.904-4.169-6.372-14.014
		c32.791-74.213-35.136-63.343-38.918-62.603c-14.391,2.816-27.704,7.337-39.985,13.068c-1.812-0.103-3.633-0.158-5.469-0.158
		c-45.833,0-84.198,31.968-94.018,74.823c24.157-27.101,41.063-38.036,51.188-42.412c-1.616,1.444-3.198,2.904-4.754,4.375
		c-0.519,0.489-1.018,0.985-1.528,1.477c-1.026,0.987-2.05,1.975-3.05,2.972c-0.596,0.593-1.175,1.191-1.761,1.788
		c-0.887,0.903-1.771,1.805-2.638,2.713c-0.615,0.645-1.215,1.292-1.819,1.938c-0.809,0.866-1.612,1.733-2.401,2.603
		c-0.613,0.676-1.216,1.352-1.818,2.03c-0.748,0.842-1.489,1.684-2.22,2.528c-0.606,0.7-1.207,1.4-1.801,2.101
		c-0.693,0.818-1.377,1.636-2.055,2.454c-0.599,0.724-1.195,1.447-1.781,2.17c-0.635,0.782-1.255,1.563-1.873,2.343
		c-0.601,0.756-1.2,1.511-1.786,2.266c-0.559,0.719-1.101,1.435-1.646,2.152c-0.616,0.81-1.236,1.62-1.837,2.426
		c-0.429,0.577-0.841,1.148-1.262,1.723c-3.812,5.2-7.293,10.3-10.438,15.199c-0.008,0.012-0.016,0.024-0.022,0.036
		c-0.828,1.29-1.627,2.561-2.41,3.821c-0.042,0.068-0.086,0.137-0.128,0.206c-0.784,1.265-1.541,2.509-2.279,3.737
		c-0.025,0.043-0.053,0.088-0.079,0.131c-1.983,3.311-3.823,6.504-5.48,9.506c-8.688,15.744-12.916,26.742-13.1,27.395
		c-27.432,98.072,58.185,56.658,70.132,50.477c12.863,6.354,27.346,9.932,42.666,9.932c41.939,0,87.133-28.518,95.658-84.031
		h-50.942c-3.5,31.014-26.439,41.744-43.014,41.125c-24.153-0.902-34.069-14.152-39.037-21.962l-53.78,0.11l0,0
		c7.534,21.662,22.567,39.811,42,51.33c-9.664,5.318-35.32,17.295-48.967,3.299c-6.766-6.939-7.961-23.836,6.967-54.629l9.497-19.26
		 M515.016,293.813c8.306,5.606,14.968,14.41,3.527,44.059c-10.974-17.647-27.482-31.49-47.104-39.099
		C480.365,294.462,502.47,285.343,515.016,293.813z"/>
</g>
</svg>
